<?xml version="1.0" standalone="no"?>
<!DOCTYPE svg PUBLIC "-//W3C//DTD SVG 20010904//EN"
 "http://www.w3.org/TR/2001/REC-SVG-20010904/DTD/svg10.dtd">
<svg version="1.0" xmlns="http://www.w3.org/2000/svg"
 width="256.000000pt" height="256.000000pt" viewBox="0 0 256.000000 256.000000"
 preserveAspectRatio="xMidYMid meet">

<g transform="translate(0.000000,256.000000) scale(0.100000,-0.100000)"
fill="#000000" stroke="none">
<path d="M1474 2544 c-17 -8 -285 -270 -596 -582 -538 -540 -566 -571 -601
-642 -50 -103 -68 -179 -69 -285 0 -108 20 -193 70 -290 30 -60 74 -109 301
-339 291 -294 316 -313 389 -294 79 20 141 125 115 195 -4 12 -123 139 -264
282 -289 293 -302 310 -307 433 -7 141 -25 119 581 723 293 292 545 550 561
574 37 54 41 126 10 169 -50 67 -124 89 -190 56z"/>
</g>
</svg>
